<svg width="22" height="22" viewBox="0 0 22 22" fill="none" xmlns="http://www.w3.org/2000/svg">
<path d="M20.8142 19.8908L17.0699 16.3551C18.4701 14.725 19.3179 12.5983 19.3179 10.2738C19.3179 5.15706 15.2076 1 10.159 1C5.10558 1 1 5.16188 1 10.2738C1 15.3857 5.11034 19.5476 10.159 19.5476C12.4547 19.5476 14.5551 18.6892 16.1649 17.2714L19.9093 20.8071C20.0331 20.9325 20.1998 21 20.3618 21C20.5237 21 20.6904 20.9373 20.8142 20.8071C21.0619 20.5563 21.0619 20.1416 20.8142 19.8908ZM2.28121 10.2738C2.28121 5.87562 5.81524 2.30209 10.1542 2.30209C14.4979 2.30209 18.0272 5.88044 18.0272 10.2738C18.0272 14.6672 14.4979 18.2503 10.1542 18.2503C5.81524 18.2503 2.28121 14.672 2.28121 10.2738Z" fill="#121212" stroke="#121212"/>
</svg>
